<?xml version="1.0" standalone="no"?>
<!DOCTYPE svg PUBLIC "-//W3C//DTD SVG 20010904//EN"
 "http://www.w3.org/TR/2001/REC-SVG-20010904/DTD/svg10.dtd">
<svg version="1.0" xmlns="http://www.w3.org/2000/svg"
 width="199.000000pt" height="198.000000pt" viewBox="0 0 199.000000 198.000000"
 preserveAspectRatio="xMidYMid meet">

<g transform="translate(0.000000,198.000000) scale(0.100000,-0.100000)"
fill="#000000" stroke="none">
<path d="M0 1781 c0 -170 1 -182 25 -233 30 -63 33 -141 8 -193 -9 -19 -20
-35 -25 -35 -4 0 -8 -297 -8 -660 l0 -660 270 0 c301 0 271 -6 378 78 22 18
43 32 46 32 3 0 32 20 63 45 32 25 83 63 113 84 30 21 65 53 78 70 21 29 21
31 4 31 -17 0 -20 8 -20 81 -1 65 3 89 20 122 13 23 23 49 24 57 1 8 7 28 13
44 8 20 8 32 1 41 -9 11 -3 11 30 3 49 -13 63 -4 31 19 l-24 16 23 12 23 13
-22 11 c-12 7 -19 16 -16 20 3 5 -2 11 -9 14 -8 3 -17 1 -20 -6 -3 -9 -8 -8
-15 3 -17 23 -13 50 7 50 23 1 -45 30 -69 30 -18 0 -19 10 -19 151 0 116 3
150 13 146 7 -2 11 -17 9 -34 -3 -29 -1 -30 44 -37 88 -12 114 -8 114 15 0 16
-4 19 -17 13 -44 -19 -125 3 -122 34 3 33 -1 42 -18 42 -13 0 -10 4 9 14 22
12 41 12 99 4 52 -8 67 -13 55 -20 -9 -5 -16 -18 -16 -30 0 -17 4 -19 28 -13
15 3 39 12 54 20 26 13 48 5 48 -18 0 -5 11 -17 24 -28 17 -13 25 -33 30 -70
8 -56 3 -55 81 -25 23 9 74 15 120 16 89 0 133 -17 193 -74 34 -32 102 -135
102 -155 0 -24 -19 -9 -45 34 -36 62 -81 112 -130 144 -36 23 -49 26 -125 25
-61 0 -99 -6 -135 -21 -44 -18 -51 -25 -56 -56 -7 -43 -25 -67 -50 -67 -11 0
-19 -7 -19 -16 0 -8 -13 -28 -28 -44 -16 -15 -37 -41 -47 -56 -10 -16 -24 -33
-32 -37 -18 -11 -16 -31 5 -50 21 -19 80 -10 96 15 14 23 2 32 -23 18 -22 -11
-28 -1 -11 16 6 6 19 26 29 44 24 45 36 47 47 9 11 -37 52 -57 119 -58 53 -1
198 -32 310 -66 50 -15 105 -31 124 -35 18 -5 38 -13 43 -18 6 -6 17 -8 24 -5
8 3 14 0 14 -6 0 -10 37 -33 85 -51 l25 -10 0 715 0 715 -990 0 -990 0 0 -179z
m1155 -392 c27 -24 35 -39 35 -64 0 -44 -24 -64 -49 -41 -11 10 -43 20 -75 23
-60 6 -64 11 -46 60 23 61 79 71 135 22z m-25 -115 c7 -8 -23 -24 -46 -24 -30
0 -52 27 -27 33 18 5 64 -1 73 -9z m16 -76 c-10 -6 -20 -7 -24 -3 -9 8 20 25
31 18 5 -3 2 -10 -7 -15z m-856 -158 c0 -5 -4 -10 -10 -10 -5 0 -10 5 -10 10
0 6 5 10 10 10 6 0 10 -4 10 -10z m1529 -390 c0 -24 -1 -23 -13 6 -8 17 -16
46 -20 65 l-6 34 19 -40 c11 -22 20 -51 20 -65z m-891 14 c-5 -36 -18 -88 -29
-115 -10 -28 -19 -64 -19 -82 0 -18 -7 -43 -16 -56 -10 -13 -18 -42 -18 -64
-1 -34 -6 -42 -26 -47 -31 -9 -114 -50 -205 -103 -38 -23 -105 -53 -148 -68
-42 -15 -83 -31 -90 -36 -18 -13 -57 -30 -101 -43 -31 -10 -40 -10 -47 1 -5 8
-9 17 -9 20 0 11 30 32 37 25 4 -3 -2 -13 -13 -21 -19 -14 -18 -14 2 -15 39 0
38 42 -1 73 -5 4 2 5 17 1 21 -5 29 -2 35 11 3 11 0 22 -8 29 -19 15 -24 76
-5 76 17 0 15 55 -3 73 -18 18 -13 27 19 27 34 0 40 15 10 25 -11 3 -19 9 -19
13 1 4 0 12 -1 17 -1 6 -2 28 -3 50 -2 34 -6 40 -27 45 -14 3 -35 14 -47 25
l-23 19 68 32 c106 50 239 93 356 116 137 26 206 36 262 37 l61 1 -9 -66z
m942 -38 c0 -3 -4 -8 -10 -11 -5 -3 -10 -1 -10 4 0 6 5 11 10 11 6 0 10 -2 10
-4z"/>
<path d="M325 190 c-3 -5 1 -10 9 -10 9 0 16 5 16 10 0 6 -4 10 -9 10 -6 0
-13 -4 -16 -10z"/>
<path d="M1 1444 c0 -11 3 -14 6 -6 3 7 2 16 -1 19 -3 4 -6 -2 -5 -13z"/>
<path d="M1148 1123 c-7 -84 -4 -140 11 -156 14 -17 14 -19 -2 -28 -27 -15
-20 -25 18 -26 32 -1 35 1 35 28 0 23 -6 32 -27 40 l-28 11 22 18 c19 15 20
19 7 24 -12 4 -14 16 -9 56 4 41 3 50 -10 50 -8 0 -16 -8 -17 -17z"/>
<path d="M920 916 c0 -2 8 -10 18 -17 15 -13 16 -12 3 4 -13 16 -21 21 -21 13z"/>
<path d="M1140 885 c0 -8 9 -15 20 -15 24 0 27 15 4 24 -22 9 -24 8 -24 -9z"/>
<path d="M1038 843 c12 -2 32 -2 45 0 12 2 2 4 -23 4 -25 0 -35 -2 -22 -4z"/>
<path d="M1120 632 c0 -29 13 -34 47 -20 l28 12 -25 4 c-14 2 -31 9 -37 14
-10 8 -13 5 -13 -10z"/>
<path d="M1130 564 c0 -25 2 -26 38 -19 20 4 39 9 42 12 9 8 -33 33 -57 33
-18 0 -23 -6 -23 -26z"/>
<path d="M1135 500 c3 -5 8 -10 11 -10 2 0 4 5 4 10 0 6 -5 10 -11 10 -5 0 -7
-4 -4 -10z"/>
<path d="M1405 390 c-3 -5 1 -10 9 -10 9 0 16 5 16 10 0 6 -4 10 -9 10 -6 0
-13 -4 -16 -10z"/>
<path d="M1175 327 c-12 -9 -14 -16 -7 -21 6 -4 20 2 32 14 23 23 5 28 -25 7z"/>
<path d="M1215 284 l-30 -13 27 -1 c15 0 30 5 33 11 11 16 2 17 -30 3z"/>
<path d="M1290 264 c-24 -13 -61 -24 -81 -24 -36 0 -104 -35 -216 -111 -23
-16 -46 -29 -52 -29 -5 0 -16 -8 -23 -18 -7 -10 -35 -32 -62 -50 l-49 -32 102
0 c87 0 103 3 108 17 11 28 36 53 54 53 9 0 24 12 34 26 13 20 22 24 41 20 18
-5 26 -2 30 11 3 10 9 26 14 35 6 11 5 18 -3 21 -7 3 2 6 19 6 17 1 39 10 49
21 10 11 27 22 39 26 24 7 56 33 56 46 0 11 -9 9 -60 -18z"/>
<path d="M1211 154 c0 -11 3 -14 6 -6 3 7 2 16 -1 19 -3 4 -6 -2 -5 -13z"/>
<path d="M1115 80 c4 -6 11 -8 16 -5 14 9 11 15 -7 15 -8 0 -12 -5 -9 -10z"/>
<path d="M1130 29 c0 -5 5 -7 10 -4 6 3 10 8 10 11 0 2 -4 4 -10 4 -5 0 -10
-5 -10 -11z"/>
</g>
</svg>
